<svg xmlns="http://www.w3.org/2000/svg" width="1024" height="1024" viewBox="0 0 1024 1024" version="1.1">
	<path d="M 402 212.569 C 392.312 215.149, 384.145 219.839, 377.073 226.882 C 366.174 237.737, 361.030 250.281, 361.030 266 C 361.030 290.831, 375.440 311.218, 399.023 319.747 L 406.500 322.451 450.500 323.062 C 499.266 323.739, 499.923 323.818, 513.999 330.693 C 523.908 335.533, 536.061 347.550, 540.730 357.124 C 556.423 389.308, 545.408 426.727, 515.987 441.177 C 500.464 448.801, 508.052 448.310, 396 448.937 L 295.500 449.500 287.672 452.269 C 264.607 460.428, 250.736 478.581, 249.282 502.508 C 247.687 528.772, 262.778 551.380, 287.500 559.760 L 295.500 562.472 395.500 562.990 L 495.500 563.507 503.657 566.268 C 521.598 572.339, 536.112 586.521, 541.866 603.604 C 545.667 614.885, 545.969 620.889, 546.081 687.500 C 546.171 740.440, 546.463 753.779, 547.655 759.393 C 552.106 780.349, 569.170 797.555, 589.799 801.887 C 596.571 803.309, 610.369 803.317, 617.201 801.903 C 637.545 797.692, 654.159 781.031, 658.489 760.500 C 660.634 750.328, 660.675 620.847, 658.536 610.754 C 656.570 601.477, 651.892 592.137, 645.961 585.648 C 636.256 575.029, 624.994 569.984, 605.283 567.424 C 582.371 564.448, 573.547 560.782, 562.412 549.611 C 553.731 540.901, 548.566 531.123, 546.489 519.464 C 544.677 509.294, 544.680 504.189, 546.504 495.500 C 551.165 473.301, 568.685 455.761, 591.500 450.452 C 597.573 449.039, 607.702 448.802, 668 448.662 C 736.185 448.503, 737.605 448.460, 743.022 446.382 C 764.862 438.007, 776.782 424.209, 780.632 402.850 C 784.097 383.630, 779.112 366.352, 766.184 352.767 C 755.342 341.375, 744.452 336.577, 724.500 334.401 C 701.855 331.932, 695.802 330.130, 683.777 322.274 C 667.873 311.885, 659.495 295.990, 657.013 271.500 C 655.112 252.735, 652.788 245.469, 645.042 234.062 C 638.826 224.909, 630.361 218.729, 617.048 213.627 C 611.534 211.513, 610.879 211.499, 509.500 211.302 C 422.639 211.133, 406.684 211.321, 402 212.569" stroke="none" fill="black" fill-rule="evenodd"/>
</svg>