<svg width="664" height="665" viewBox="0 0 664 665" fill="none" xmlns="http://www.w3.org/2000/svg">
<g clip-path="url(#clip0_1_2)">

<!-- ORBITAL GRID BACKGROUND (unchanged) -->
<path opacity="0.2" d="M663.459 504.085V333.877H663.999V331.998H663.459V161.791C663.449 120.049 647.205 79.9474 618.163 49.9658V46.8775H663.459V44.9858H619.475L661.709 2.52078L660.422 1.23396L618.201 43.699V2.1476H616.323V44.9858H613.131C583.581 16.7383 544.283 0.962883 503.404 0.937988H160.042C119.18 0.976116 79.9032 16.7505 50.3661 44.9858H47.162V2.1476H45.2961V43.6604L3.0755 1.19535L1.78868 2.48217L44.0092 44.9472H2.67659V46.826H45.2961V49.9658C16.25 79.9451 0.00579511 120.048 0 161.791V504.085C0.00579511 545.827 16.25 585.93 45.2961 615.909V619.049H2.67659V620.928H43.9706L1.75008 663.393L3.0369 664.68L45.2575 622.215V663.728H47.1234V620.889H50.3275C79.8742 649.134 119.167 664.909 160.042 664.937H503.404C544.27 664.902 583.552 649.128 613.093 620.889H616.284V663.728H618.163V622.215L660.383 664.68L661.67 663.393L619.437 620.928H663.999V619.049H618.163V615.909C647.198 585.923 663.441 545.825 663.459 504.085ZM661.58 504.085C661.577 544.662 646.041 583.698 618.163 613.181V451.904H660.911V450.038H618.163V333.877H661.58V504.085ZM449.525 450.038L448.238 448.751C450.374 446.581 452.446 444.35 454.453 442.06V450.038H449.525ZM454.453 451.917V454.993L451.391 451.917H454.453ZM210.073 450.038V443.282C211.746 445.148 213.471 446.963 215.221 448.751L213.934 450.038H210.073ZM212.068 451.917L210.073 453.899V451.904L212.068 451.917ZM213.934 215.837L215.221 217.124C213.471 218.912 211.746 220.74 210.073 222.593V215.837H213.934ZM210.073 213.958V211.977L212.068 213.971L210.073 213.958ZM454.453 215.837V223.815C452.446 221.525 450.374 219.294 448.238 217.124L449.525 215.837H454.453ZM451.391 213.958L454.453 210.883V213.958H451.391ZM454.453 331.985H450.052C449.857 301.112 437.666 271.524 416.055 249.474L446.938 218.462C449.512 221.096 452.026 223.828 454.479 226.659L454.453 331.985ZM456.319 228.885C480.321 257.894 493.511 294.334 493.637 331.985H456.319V228.885ZM414.729 250.761C436.001 272.447 448 301.558 448.187 331.934H333.981L414.729 250.761ZM332.669 330.544V215.837C362.941 216.048 391.925 228.115 413.404 249.449L332.669 330.544ZM330.79 330.544L250.042 249.359C271.545 228.064 300.528 216.032 330.79 215.837V330.544ZM329.503 331.831H215.272C215.466 301.456 227.464 272.348 248.729 250.658L329.503 331.831ZM329.503 333.71L248.755 414.882C227.49 393.193 215.492 364.084 215.298 333.71H329.503ZM330.79 334.997V450.038C300.512 449.826 271.523 437.754 250.042 416.414L330.79 334.997ZM332.669 334.997L413.404 416.169C391.969 437.601 362.979 449.763 332.669 450.038V334.997ZM333.956 333.71H448.148C447.961 364.086 435.962 393.197 414.691 414.882L333.956 333.71ZM445.587 217.124L414.704 248.149C397.752 231.332 376.09 220.063 352.589 215.837H444.275L445.587 217.124ZM332.669 213.958V170.116C373.451 170.316 412.636 185.99 442.306 213.971L332.669 213.958ZM330.79 213.958H221.153C250.817 185.969 290.006 170.294 330.79 170.103V213.958ZM310.857 215.837C287.349 220.064 265.678 231.332 248.717 248.149L217.833 217.124L219.12 215.837H310.857ZM216.546 218.411L247.43 249.423C225.809 271.466 213.615 301.058 213.432 331.934H210.099V225.437C212.171 223.056 214.32 220.727 216.546 218.475V218.411ZM208.208 331.934H169.77C169.914 293.706 183.523 256.751 208.208 227.56V331.934ZM208.208 333.813V438.187C183.523 408.996 169.914 372.041 169.77 333.813H208.208ZM210.073 333.813H213.406C213.587 364.685 225.781 394.274 247.404 416.311L216.52 447.336C214.294 445.084 212.145 442.755 210.086 440.374L210.073 333.813ZM217.872 448.751L248.755 417.726C265.707 434.537 287.362 445.804 310.857 450.038H219.184L217.872 448.751ZM330.79 451.917V495.772C290.006 495.581 250.817 479.906 221.153 451.917H330.79ZM332.669 451.917H442.306C412.636 479.898 373.451 495.572 332.669 495.772V451.917ZM352.589 450.038C376.099 445.817 397.771 434.548 414.729 417.726L445.613 448.751L444.326 450.038H352.589ZM446.913 447.465L416.029 416.439C437.643 394.397 449.835 364.812 450.027 333.941H454.428V439.268C452.026 442.047 449.521 444.779 446.913 447.465ZM456.319 333.941H493.637C493.511 371.592 480.321 408.032 456.319 437.041V333.941ZM495.554 332.063C495.411 293.201 481.511 255.645 456.319 226.054V215.837H555.276C573.903 251.725 583.668 291.551 583.753 331.985L495.554 332.063ZM456.319 214.035V209.068L510.597 154.52C527.98 172.126 542.698 192.176 554.285 214.035H456.319ZM456.319 206.417V112.66C475.677 123.752 493.482 137.355 509.272 153.117L456.319 206.417ZM454.453 208.296L448.753 214.035H445.034C414.881 184.857 374.627 168.446 332.669 168.225V79.5884C375.332 79.6821 417.26 90.7046 454.453 111.605V208.296ZM330.79 168.225C288.842 168.423 248.589 184.806 218.425 213.958H214.706L210.073 209.3V110.987C247.008 90.475 288.542 79.6676 330.79 79.5756V168.225ZM208.208 207.434L154.161 153.117C170.252 137.067 188.431 123.255 208.208 112.055V207.434ZM208.208 210.098V213.958H109.122C120.705 192.096 135.424 172.045 152.81 154.443L208.208 210.098ZM208.208 215.85V224.729C182.35 254.5 168.043 292.566 167.891 331.998H79.7056C79.789 291.56 89.5537 251.729 108.183 215.837L208.208 215.85ZM167.891 333.877C168.043 373.309 182.35 411.376 208.208 441.146V450.038H108.183C89.5557 414.15 79.7911 374.324 79.7056 333.89L167.891 333.877ZM208.208 451.904V455.765L152.874 511.394C135.488 493.791 120.77 473.741 109.187 451.878L208.208 451.904ZM208.208 458.441V553.82C188.431 542.62 170.252 528.808 154.161 512.758L208.208 458.441ZM210.073 456.562L214.706 451.904H218.425C248.587 481.061 288.84 497.449 330.79 497.651V586.313C288.542 586.21 247.009 575.398 210.073 554.888V456.562ZM332.669 497.651C374.617 497.45 414.869 481.067 445.034 451.917H448.753L454.453 457.656V554.271C417.259 575.169 375.332 586.195 332.669 586.3V497.651ZM456.319 459.535L509.272 512.771C493.476 528.526 475.672 542.129 456.319 553.228V459.535ZM456.319 456.884V451.917H554.285C542.698 473.777 527.98 493.827 510.597 511.432L456.319 456.884ZM456.319 450.038V439.898C481.511 410.307 495.411 372.752 495.554 333.89H583.753C583.668 374.324 573.903 414.15 555.276 450.038H456.319ZM585.619 333.89H616.284V450.038H557.386C575.862 414.1 585.539 374.287 585.619 333.877V333.89ZM585.619 332.011C585.541 291.597 575.864 251.78 557.386 215.837H616.284V331.985L585.619 332.011ZM556.395 213.984C544.651 191.619 529.664 171.113 511.923 153.13L615.1 49.4511L615.19 49.5283C615.576 49.9272 615.962 50.3519 616.348 50.8151V213.971L556.395 213.984ZM613.685 48.1514L510.597 151.792C494.435 135.66 476.179 121.771 456.319 110.498V46.8646H612.346L613.685 48.1514ZM454.453 109.456C417.202 88.7297 375.298 77.8021 332.669 77.6968V46.8131H454.453V109.456ZM332.669 44.9858V2.81674H454.453V44.9858H332.669ZM330.79 44.9858H210.073V2.81674H330.79V44.9858ZM330.79 46.8646V77.7483C288.576 77.8471 247.064 88.5603 210.073 108.902V46.8646H330.79ZM208.208 109.919C187.938 121.29 169.32 135.383 152.874 151.805L49.7871 48.1643L51.0739 46.8775H208.208V109.919ZM48.333 49.5283L48.4102 49.4511L151.536 153.117C133.787 171.096 118.796 191.603 107.051 213.971H47.162V50.7637C47.6124 50.3519 47.9341 49.9272 48.333 49.5283ZM106.073 215.837C87.5987 251.772 77.9223 291.58 77.8398 331.985H47.162V215.837H106.073ZM77.8398 333.864C77.9183 374.278 87.5948 414.096 106.073 450.038H47.162V333.877L77.8398 333.864ZM107.051 451.891C118.796 474.259 133.787 494.766 151.536 512.745L48.4102 616.424L48.333 616.347C47.9341 615.948 47.5609 615.523 47.162 615.06V451.904L107.051 451.891ZM49.7742 617.724L152.861 514.083C169.311 530.506 187.927 544.602 208.195 555.982V619.036H51.1125L49.7742 617.724ZM210.073 557.025C247.064 577.366 288.576 588.08 330.79 588.178V619.062H210.073V557.025ZM330.79 620.889V663.058H210.073V620.889H330.79ZM332.669 620.889H454.453V663.058H332.669V620.889ZM332.669 619.011V588.127C375.298 588.022 417.202 577.094 454.453 556.368V618.959L332.669 619.011ZM456.319 555.377C476.179 544.104 494.435 530.216 510.597 514.083L613.685 617.724L612.398 619.011H456.319V555.377ZM615.1 616.347L615.01 616.424L511.897 512.758C529.639 494.775 544.625 474.269 556.37 451.904H616.258V615.112L615.1 616.347ZM661.58 161.791V331.998H618.163V215.837H660.911V213.958H618.163V52.7325C646.032 82.2061 661.567 121.227 661.58 161.791ZM610.39 44.9472H456.319V2.81674H503.404C543.114 2.84607 581.34 17.9129 610.39 44.9858V44.9472ZM160.003 2.77814H208.208V44.9472H53.0685C82.1211 17.8902 120.341 2.83755 160.042 2.81674L160.003 2.77814ZM1.86589 504.085V161.791C1.87391 121.212 17.4138 82.1759 45.2961 52.6939V213.932H2.57364V215.837H45.2961V331.985H2.41922V333.864H45.2961V450.038H2.57364V451.917H45.2961V613.156C17.4199 583.68 1.88049 544.654 1.86589 504.085ZM53.0685 620.928H208.208V663.097H160.042C120.331 663.055 82.1092 647.975 53.0685 620.889V620.928ZM503.456 663.097H456.319V620.889H610.39C581.338 647.96 543.114 663.027 503.404 663.058L503.456 663.097Z" fill="url(#paint0_radial_1_2)"/>

<mask id="mask0_1_2" style="mask-type:alpha" maskUnits="userSpaceOnUse" x="-13" y="0" width="592" height="665">
<path d="M578.988 0H-12.7969V664.938H578.988V0Z" fill="url(#paint1_linear_1_2)"/>
</mask>
<g mask="url(#mask0_1_2)">

  <!-- ══════════════════════════════════════════ -->
  <!--  1. BITCOIN  — top-left box               -->
  <!-- ══════════════════════════════════════════ -->
  <rect x="131" y="26" width="79" height="79" rx="10" fill="white" fill-opacity="0.06" stroke="white" stroke-opacity="0.15" stroke-width="1.2" />
  <g transform="translate(-2.5, 6.5)">
    <!-- ₿ symbol -->
    <path d="M177 48h-2v-3.5c0-.8-.6-1.5-1.5-1.5s-1.5.7-1.5 1.5V48h-4v-3.5c0-.8-.6-1.5-1.5-1.5s-1.5.7-1.5 1.5V48h-7v22h7v3.5c0 .8.6 1.5 1.5 1.5s1.5-.7 1.5-1.5V70h4v3.5c0 .8.6 1.5 1.5 1.5s1.5-.7 1.5-1.5V70h.5c3.8 0 6.5-2.2 6.5-5.5 0-2.2-1.2-4-3.2-5 1.8-1.1 2.9-2.8 2.9-4.7 0-3.1-2.1-5.2-5.7-5.8zm-8 3.5h4.5c2 0 3.2.9 3.2 2.5 0 1.7-1.2 2.5-3.2 2.5H169V51.5zm0 8.5h5c2.3 0 3.7 1.1 3.7 3s-1.4 3-3.7 3H169V60z" fill="white"/>
  </g>

  <!-- ══════════════════════════════════════════ -->
  <!--  2. ETHEREUM  — top-center box            -->
  <!-- ══════════════════════════════════════════ -->
  <rect x="295" y="66" width="79" height="79" rx="10" fill="white" fill-opacity="0.06" stroke="white" stroke-opacity="0.15" stroke-width="1.2" />
  <g transform="translate(0, -3.0)">
    <!-- ETH diamond -->
    <path d="M334.5 79L315 107l19.5 11 19.5-11L334.5 79zm0 5.5l13 19.5-13 7.5-13-7.5 13-19.5z" fill="white" fill-opacity="0.95"/>
    <path d="M315 110l19.5 12.5 19.5-12.5-19.5 28-19.5-28z" fill="white" fill-opacity="0.7"/>
  </g>

  <!-- ══════════════════════════════════════════ -->
  <!--  3. SOLANA  — left-upper box              -->
  <!-- ══════════════════════════════════════════ -->
  <rect x="210" y="166" width="79" height="79" rx="10" fill="white" fill-opacity="0.06" stroke="white" stroke-opacity="0.15" stroke-width="1.2" />
  <g transform="translate(7.0, 1.25)">
    <!-- SOL 3 diagonal bars -->
    <path d="M221 222.5h38c.8 0 1.6-.3 2.2-.9l5-5.1c.9-.9.2-2.5-1-2.5H227c-.8 0-1.6.3-2.2.9l-5 5.1c-.9.9-.2 2.5 1 2.5z" fill="white"/>
    <path d="M221 211.5h38c.8 0 1.6-.3 2.2-.9l5-5.1c.9-.9.2-2.5-1-2.5H227c-.8 0-1.6.3-2.2.9l-5 5.1c-.9.9-.2 2.5 1 2.5z" fill="white" fill-opacity="0.7"/>
    <path d="M265 194.5H227c-.8 0-1.6.3-2.2.9l-5 5.1c-.9.9-.2 2.5 1 2.5h38c.8 0 1.6-.3 2.2-.9l5-5.1c.9-.9.2-2.5-1-2.5z" fill="white" fill-opacity="0.45"/>
  </g>

  <!-- ══════════════════════════════════════════ -->
  <!--  4. POLYGON  — upper-right box            -->
  <!-- ══════════════════════════════════════════ -->
  <rect x="361" y="217" width="79" height="79" rx="10" fill="white" fill-opacity="0.06" stroke="white" stroke-opacity="0.15" stroke-width="1.2" />
  <g transform="translate(0, 1.5)">
    <!-- MATIC hexagon ring -->
    <path d="M400.5 233l-19 11v22l19 11 19-11v-22l-19-11zm0 4l15 8.7v17.4l-15 8.7-15-8.7v-17.4l15-8.7zm0 9l-9 5.2v10.4l9 5.2 9-5.2v-10.4l-9-5.2zm0 3.5l5.5 3.2v6.4l-5.5 3.2-5.5-3.2v-6.4l5.5-3.2z" fill="white"/>
  </g>

  <!-- ══════════════════════════════════════════ -->
  <!--  5. BNB  — left box                       -->
  <!-- ══════════════════════════════════════════ -->
  <rect x="104" y="254" width="79" height="79" rx="10" fill="white" fill-opacity="0.06" stroke="white" stroke-opacity="0.15" stroke-width="1.2" />
  <g transform="translate(0, -1.5)">
    <!-- BNB cross-diamond pattern -->
    <path d="M143.5 269l-7 7 7 7 7-7-7-7zm0 3.5l3.5 3.5-3.5 3.5-3.5-3.5 3.5-3.5z" fill="white"/>
    <path d="M124.5 288l-7 7 7 7 7-7-7-7zm0 3.5l3.5 3.5-3.5 3.5-3.5-3.5 3.5-3.5z" fill="white"/>
    <path d="M162.5 288l-7 7 7 7 7-7-7-7zm0 3.5l3.5 3.5-3.5 3.5-3.5-3.5 3.5-3.5z" fill="white"/>
    <path d="M143.5 288l-7 7 7 7 7-7-7-7zm0 3.5l3.5 3.5-3.5 3.5-3.5-3.5 3.5-3.5z" fill="white"/>
    <path d="M143.5 307l-7 7 7 7 7-7-7-7zm0 3.5l3.5 3.5-3.5 3.5-3.5-3.5 3.5-3.5z" fill="white"/>
    <line x1="131.5" y1="295" x2="136.5" y2="295" stroke="white" stroke-width="2.5" stroke-linecap="round"/>
    <line x1="150.5" y1="295" x2="155.5" y2="295" stroke="white" stroke-width="2.5" stroke-linecap="round"/>
    <line x1="143.5" y1="276" x2="143.5" y2="281" stroke="white" stroke-width="2.5" stroke-linecap="round"/>
    <line x1="143.5" y1="309" x2="143.5" y2="314" stroke="white" stroke-width="2.5" stroke-linecap="round"/>
  </g>

  <!-- ══════════════════════════════════════════ -->
  <!--  6. WALLET  — center box                  -->
  <!-- ══════════════════════════════════════════ -->
  <rect x="252" y="304" width="79" height="79" rx="10" fill="white" fill-opacity="0.06" stroke="white" stroke-opacity="0.15" stroke-width="1.2" />
  <g transform="translate(8.5, 7.5)">
    <!-- Wallet icon -->
    <rect x="261" y="320" width="44" height="32" rx="4" stroke="white" stroke-width="2" fill="white" fill-opacity="0.1"/>
    <path d="M261 328h44" stroke="white" stroke-width="1.5" stroke-opacity="0.5"/>
    <rect x="293" y="331" width="14" height="10" rx="3" fill="white" fill-opacity="0.2" stroke="white" stroke-width="1.5"/>
    <circle cx="300" cy="336" r="2.5" fill="white"/>
    <!-- Card lines -->
    <line x1="265" y1="340" x2="280" y2="340" stroke="white" stroke-width="1.5" stroke-linecap="round" stroke-opacity="0.6"/>
    <line x1="265" y1="345" x2="275" y2="345" stroke="white" stroke-width="1.5" stroke-linecap="round" stroke-opacity="0.4"/>
  </g>

  <!-- ══════════════════════════════════════════ -->
  <!--  7. SHIELD  — right box                   -->
  <!-- ══════════════════════════════════════════ -->
  <rect x="415" y="334" width="79" height="79" rx="10" fill="white" fill-opacity="0.06" stroke="white" stroke-opacity="0.15" stroke-width="1.2" />
  <g transform="translate(0, 0.25)">
    <!-- Shield with checkmark -->
    <path d="M454.5 348l-22 8.5v16c0 12.5 9.5 23.5 22 26 12.5-2.5 22-13.5 22-26v-16l-22-8.5zm0 4.5l17.5 6.7v14.3c0 10-7.5 19-17.5 21.5-10-2.5-17.5-11.5-17.5-21.5v-14.3l17.5-6.7z" fill="white"/>
    <path d="M444 375l5.5 5.5 13.5-13.5" stroke="white" stroke-width="3" stroke-linecap="round" stroke-linejoin="round" fill="none"/>
  </g>

  <!-- ══════════════════════════════════════════ -->
  <!--  8. LOCK  — lower-left box                -->
  <!-- ══════════════════════════════════════════ -->
  <rect x="130" y="416" width="79" height="79" rx="10" fill="white" fill-opacity="0.06" stroke="white" stroke-opacity="0.15" stroke-width="1.2" />
  <g transform="translate(0, 3.0)">
    <!-- Padlock -->
    <path d="M169.5 428c-8.3 0-15 6.7-15 15v5h-5.5c-1.9 0-3.5 1.6-3.5 3.5v22c0 1.9 1.6 3.5 3.5 3.5h41c1.9 0 3.5-1.6 3.5-3.5v-22c0-1.9-1.6-3.5-3.5-3.5H185v-5c0-8.3-6.7-15-15.5-15zm0 4c6.1 0 11 4.9 11 11v5h-22v-5c0-6.1 4.9-11 11-11zm-20 18h40c.8 0 1.5.7 1.5 1.5v20c0 .8-.7 1.5-1.5 1.5h-40c-.8 0-1.5-.7-1.5-1.5v-20c0-.8.7-1.5 1.5-1.5zm20 7c-2.5 0-4.5 2-4.5 4.5 0 1.7 1 3.2 2.4 4l-1.4 5h7l-1.4-5c1.4-.8 2.4-2.3 2.4-4 0-2.5-2-4.5-4.5-4.5z" fill="white"/>
  </g>

  <!-- ══════════════════════════════════════════ -->
  <!--  9. GRAPH / DeFi  — lower-center box      -->
  <!-- ══════════════════════════════════════════ -->
  <rect x="283" y="441" width="79" height="79" rx="10" fill="white" fill-opacity="0.06" stroke="white" stroke-opacity="0.15" stroke-width="1.2" />
  <g transform="translate(-3.5, 2.0)">
    <!-- Rising bars -->
    <rect x="295" y="488" width="9" height="14" rx="1.5" fill="white" fill-opacity="0.5"/>
    <rect x="308" y="480" width="9" height="22" rx="1.5" fill="white" fill-opacity="0.6"/>
    <rect x="321" y="470" width="9" height="32" rx="1.5" fill="white" fill-opacity="0.7"/>
    <rect x="334" y="475" width="9" height="27" rx="1.5" fill="white" fill-opacity="0.6"/>
    <rect x="347" y="461" width="9" height="41" rx="1.5" fill="white" fill-opacity="0.8"/>
    <!-- Trend line -->
    <polyline points="299,493 312,482 325,467 338,473 356,458" fill="none" stroke="white" stroke-width="2.5" stroke-linecap="round" stroke-linejoin="round"/>
    <circle cx="356" cy="458" r="4" fill="white"/>
    <!-- Axis -->
    <line x1="292" y1="503" x2="360" y2="503" stroke="white" stroke-width="1.5" stroke-linecap="round" stroke-opacity="0.4"/>
  </g>

  <!-- ══════════════════════════════════════════ -->
  <!-- 10. VELIXIR V  — bottom-left box          -->
  <!-- ══════════════════════════════════════════ -->
  <rect x="82" y="570" width="79" height="79" rx="10" fill="white" fill-opacity="0.06" stroke="white" stroke-opacity="0.15" stroke-width="1.2" />
  <g transform="translate(-0.5, 5.5)">
    <!-- Bold V shape -->
    <path d="M97 583l25 42 25-42" stroke="white" stroke-width="5.5" stroke-linecap="round" stroke-linejoin="round" fill="none"/>
    <!-- Inner glow V -->
    <path d="M104 583l18 30 18-30" stroke="white" stroke-width="2" stroke-linecap="round" stroke-linejoin="round" fill="none" stroke-opacity="0.35"/>
  </g>

  <!-- ══════════════════════════════════════════ -->
  <!-- 11. BLOCKCHAIN  — bottom-right box        -->
  <!-- ══════════════════════════════════════════ -->
  <rect x="323" y="560" width="79" height="79" rx="10" fill="white" fill-opacity="0.06" stroke="white" stroke-opacity="0.15" stroke-width="1.2" />
  <g transform="translate(6.5, 0.0)">
    <!-- Three linked blocks with connectors -->
    <!-- Block 1 -->
    <rect x="334" y="572" width="22" height="15" rx="3" fill="white" fill-opacity="0.15" stroke="white" stroke-width="2"/>
    <!-- Block 2 -->
    <rect x="356" y="592" width="22" height="15" rx="3" fill="white" fill-opacity="0.15" stroke="white" stroke-width="2"/>
    <!-- Block 3 -->
    <rect x="334" y="612" width="22" height="15" rx="3" fill="white" fill-opacity="0.15" stroke="white" stroke-width="2"/>
    <!-- Connector 1->2 -->
    <path d="M345 587 L345 592 L356 599" stroke="white" stroke-width="2" stroke-linecap="round" stroke-linejoin="round" fill="none"/>
    <!-- Connector 2->3 -->
    <path d="M367 607 L367 614 L356 614" stroke="white" stroke-width="2" stroke-linecap="round" stroke-linejoin="round" fill="none"/>
    <!-- Hash lines inside blocks -->
    <line x1="338" y1="578" x2="352" y2="578" stroke="white" stroke-width="1" stroke-opacity="0.6" stroke-linecap="round"/>
    <line x1="338" y1="582" x2="348" y2="582" stroke="white" stroke-width="1" stroke-opacity="0.4" stroke-linecap="round"/>
    <line x1="360" y1="598" x2="374" y2="598" stroke="white" stroke-width="1" stroke-opacity="0.6" stroke-linecap="round"/>
    <line x1="360" y1="602" x2="374" y2="602" stroke="white" stroke-width="1" stroke-opacity="0.4" stroke-linecap="round"/>
    <line x1="338" y1="618" x2="352" y2="618" stroke="white" stroke-width="1" stroke-opacity="0.6" stroke-linecap="round"/>
    <line x1="338" y1="622" x2="348" y2="622" stroke="white" stroke-width="1" stroke-opacity="0.4" stroke-linecap="round"/>
  </g>
</g>

<defs>
  <radialGradient id="paint0_radial_1_2" cx="0" cy="0" r="1" gradientUnits="userSpaceOnUse" gradientTransform="translate(332 332.938) rotate(90) scale(349.759)">
    <stop stop-color="white"/>
    <stop offset="1" stop-color="white" stop-opacity="0"/>
  </radialGradient>
  <linearGradient id="paint1_linear_1_2" x1="141.949" y1="-81.5932" x2="363.282" y2="699.638" gradientUnits="userSpaceOnUse">
    <stop offset="0.416946"/>
    <stop offset="0.880782" stop-opacity="0.02"/>
  </linearGradient>
  <clipPath id="clip0_1_2">
    <rect width="664" height="665" fill="white"/>
  </clipPath>
</defs>

</g>
</svg>
